<svg xmlns="http://www.w3.org/2000/svg" version="1.1" xmlns:xlink="http://www.w3.org/1999/xlink" xmlns:svgjs="http://svgjs.com/svgjs" width="1440" height="560" preserveAspectRatio="none" viewBox="0 0 1440 560"><g mask="url(&quot;#SvgjsMask1002&quot;)" fill="none"><path d="M-49.65 374.62L-49.65 374.62" stroke="#132e65" stroke-width="1.5"></path><path d="M-49.65 374.62L58.33 390.26" stroke="#132e65" stroke-width="1.5"></path><path d="M-49.65 374.62L-60.48 518.52" stroke="#132e65" stroke-width="1.5"></path><path d="M-49.65 374.62L88.18 552.94" stroke="#132e65" stroke-width="1.5"></path><path d="M-49.65 374.62L260.36 409.23" stroke="#132e65" stroke-width="1.5"></path><path d="M-49.65 374.62L-78.75 704.43" stroke="#132e65" stroke-width="1.5"></path><path d="M-60.48 518.52L-60.48 518.52" stroke="#132e65" stroke-width="1.5"></path><path d="M-60.48 518.52L88.18 552.94" stroke="#132e65" stroke-width="1.5"></path><path d="M-78.75 704.43L-78.75 704.43" stroke="#132e65" stroke-width="1.5"></path><path d="M-78.75 704.43L45.9 702.22" stroke="#132e65" stroke-width="1.5"></path><path d="M-78.75 704.43L-60.48 518.52" stroke="#132e65" stroke-width="1.5"></path><path d="M-78.75 704.43L88.18 552.94" stroke="#132e65" stroke-width="1.5"></path><path d="M58.33 390.26L58.33 390.26" stroke="#132e65" stroke-width="1.5"></path><path d="M58.33 390.26L88.18 552.94" stroke="#132e65" stroke-width="1.5"></path><path d="M58.33 390.26L-60.48 518.52" stroke="#132e65" stroke-width="1.5"></path><path d="M58.33 390.26L260.36 409.23" stroke="#132e65" stroke-width="1.5"></path><path d="M58.33 390.26L255.14 561.87" stroke="#132e65" stroke-width="1.5"></path><path d="M88.18 552.94L88.18 552.94" stroke="#132e65" stroke-width="1.5"></path><path d="M88.18 552.94L45.9 702.22" stroke="#132e65" stroke-width="1.5"></path><path d="M45.9 702.22L45.9 702.22" stroke="#132e65" stroke-width="1.5"></path><path d="M45.9 702.22L218.15 672.03" stroke="#132e65" stroke-width="1.5"></path><path d="M45.9 702.22L-60.48 518.52" stroke="#132e65" stroke-width="1.5"></path><path d="M260.36 409.23L260.36 409.23" stroke="#132e65" stroke-width="1.5"></path><path d="M260.36 409.23L394.32 389.11" stroke="#132e65" stroke-width="1.5"></path><path d="M260.36 409.23L255.14 561.87" stroke="#132e65" stroke-width="1.5"></path><path d="M260.36 409.23L341.82 555.29" stroke="#132e65" stroke-width="1.5"></path><path d="M255.14 561.87L255.14 561.87" stroke="#132e65" stroke-width="1.5"></path><path d="M255.14 561.87L341.82 555.29" stroke="#132e65" stroke-width="1.5"></path><path d="M255.14 561.87L218.15 672.03" stroke="#132e65" stroke-width="1.5"></path><path d="M218.15 672.03L218.15 672.03" stroke="#132e65" stroke-width="1.5"></path><path d="M218.15 672.03L341.82 555.29" stroke="#132e65" stroke-width="1.5"></path><path d="M394.32 389.11L394.32 389.11" stroke="#132e65" stroke-width="1.5"></path><path d="M394.32 389.11L561.51 355.53" stroke="#132e65" stroke-width="1.5"></path><path d="M341.82 555.29L341.82 555.29" stroke="#132e65" stroke-width="1.5"></path><path d="M341.82 555.29L404.65 644.49" stroke="#132e65" stroke-width="1.5"></path><path d="M341.82 555.29L495.72 539.08" stroke="#132e65" stroke-width="1.5"></path><path d="M404.65 644.49L404.65 644.49" stroke="#132e65" stroke-width="1.5"></path><path d="M404.65 644.49L495.72 539.08" stroke="#132e65" stroke-width="1.5"></path><path d="M404.65 644.49L255.14 561.87" stroke="#132e65" stroke-width="1.5"></path><path d="M404.65 644.49L218.15 672.03" stroke="#132e65" stroke-width="1.5"></path><path d="M404.65 644.49L653.44 668.7" stroke="#132e65" stroke-width="1.5"></path><path d="M404.65 644.49L394.32 389.11" stroke="#132e65" stroke-width="1.5"></path><path d="M561.51 355.53L561.51 355.53" stroke="#132e65" stroke-width="1.5"></path><path d="M561.51 355.53L639.65 245.42" stroke="#132e65" stroke-width="1.5"></path><path d="M495.72 539.08L495.72 539.08" stroke="#132e65" stroke-width="1.5"></path><path d="M495.72 539.08L394.32 389.11" stroke="#132e65" stroke-width="1.5"></path><path d="M495.72 539.08L561.51 355.53" stroke="#132e65" stroke-width="1.5"></path><path d="M639.65 245.42L639.65 245.42" stroke="#132e65" stroke-width="1.5"></path><path d="M639.65 245.42L792.11 205.67" stroke="#132e65" stroke-width="1.5"></path><path d="M639.65 245.42L820.24 395.63" stroke="#132e65" stroke-width="1.5"></path><path d="M639.65 245.42L394.32 389.11" stroke="#132e65" stroke-width="1.5"></path><path d="M639.65 245.42L712.11 533.85" stroke="#132e65" stroke-width="1.5"></path><path d="M712.11 533.85L712.11 533.85" stroke="#132e65" stroke-width="1.5"></path><path d="M712.11 533.85L802.12 512.54" stroke="#132e65" stroke-width="1.5"></path><path d="M712.11 533.85L653.44 668.7" stroke="#132e65" stroke-width="1.5"></path><path d="M712.11 533.85L820.24 395.63" stroke="#132e65" stroke-width="1.5"></path><path d="M712.11 533.85L841.74 690.77" stroke="#132e65" stroke-width="1.5"></path><path d="M712.11 533.85L495.72 539.08" stroke="#132e65" stroke-width="1.5"></path><path d="M712.11 533.85L561.51 355.53" stroke="#132e65" stroke-width="1.5"></path><path d="M653.44 668.7L653.44 668.7" stroke="#132e65" stroke-width="1.5"></path><path d="M653.44 668.7L841.74 690.77" stroke="#132e65" stroke-width="1.5"></path><path d="M653.44 668.7L495.72 539.08" stroke="#132e65" stroke-width="1.5"></path><path d="M653.44 668.7L802.12 512.54" stroke="#132e65" stroke-width="1.5"></path><path d="M792.11 205.67L792.11 205.67" stroke="#132e65" stroke-width="1.5"></path><path d="M792.11 205.67L820.24 395.63" stroke="#132e65" stroke-width="1.5"></path><path d="M792.11 205.67L965.79 88.55" stroke="#132e65" stroke-width="1.5"></path><path d="M792.11 205.67L1009.95 192.3" stroke="#132e65" stroke-width="1.5"></path><path d="M792.11 205.67L977.07 357.56" stroke="#132e65" stroke-width="1.5"></path><path d="M792.11 205.67L561.51 355.53" stroke="#132e65" stroke-width="1.5"></path><path d="M820.24 395.63L820.24 395.63" stroke="#132e65" stroke-width="1.5"></path><path d="M820.24 395.63L802.12 512.54" stroke="#132e65" stroke-width="1.5"></path><path d="M820.24 395.63L977.07 357.56" stroke="#132e65" stroke-width="1.5"></path><path d="M802.12 512.54L802.12 512.54" stroke="#132e65" stroke-width="1.5"></path><path d="M802.12 512.54L975.62 561.07" stroke="#132e65" stroke-width="1.5"></path><path d="M802.12 512.54L841.74 690.77" stroke="#132e65" stroke-width="1.5"></path><path d="M841.74 690.77L841.74 690.77" stroke="#132e65" stroke-width="1.5"></path><path d="M841.74 690.77L1005.71 679.31" stroke="#132e65" stroke-width="1.5"></path><path d="M841.74 690.77L975.62 561.07" stroke="#132e65" stroke-width="1.5"></path><path d="M841.74 690.77L1114.1 655.56" stroke="#132e65" stroke-width="1.5"></path><path d="M995.42 -96.33L995.42 -96.33" stroke="#132e65" stroke-width="1.5"></path><path d="M995.42 -96.33L1095.29 -69.02" stroke="#132e65" stroke-width="1.5"></path><path d="M995.42 -96.33L965.79 88.55" stroke="#132e65" stroke-width="1.5"></path><path d="M995.42 -96.33L1099.14 81.11" stroke="#132e65" stroke-width="1.5"></path><path d="M965.79 88.55L965.79 88.55" stroke="#132e65" stroke-width="1.5"></path><path d="M965.79 88.55L1009.95 192.3" stroke="#132e65" stroke-width="1.5"></path><path d="M965.79 88.55L1099.14 81.11" stroke="#132e65" stroke-width="1.5"></path><path d="M965.79 88.55L1095.29 -69.02" stroke="#132e65" stroke-width="1.5"></path><path d="M1009.95 192.3L1009.95 192.3" stroke="#132e65" stroke-width="1.5"></path><path d="M1009.95 192.3L1088.92 259.97" stroke="#132e65" stroke-width="1.5"></path><path d="M1009.95 192.3L1099.14 81.11" stroke="#132e65" stroke-width="1.5"></path><path d="M1009.95 192.3L977.07 357.56" stroke="#132e65" stroke-width="1.5"></path><path d="M977.07 357.56L977.07 357.56" stroke="#132e65" stroke-width="1.5"></path><path d="M977.07 357.56L1116.2 364.44" stroke="#132e65" stroke-width="1.5"></path><path d="M977.07 357.56L1088.92 259.97" stroke="#132e65" stroke-width="1.5"></path><path d="M975.62 561.07L975.62 561.07" stroke="#132e65" stroke-width="1.5"></path><path d="M975.62 561.07L1005.71 679.31" stroke="#132e65" stroke-width="1.5"></path><path d="M975.62 561.07L1114.1 655.56" stroke="#132e65" stroke-width="1.5"></path><path d="M1005.71 679.31L1005.71 679.31" stroke="#132e65" stroke-width="1.5"></path><path d="M1005.71 679.31L1114.1 655.56" stroke="#132e65" stroke-width="1.5"></path><path d="M1005.71 679.31L1147.26 502.35" stroke="#132e65" stroke-width="1.5"></path><path d="M1005.71 679.31L1248.25 688.61" stroke="#132e65" stroke-width="1.5"></path><path d="M1005.71 679.31L802.12 512.54" stroke="#132e65" stroke-width="1.5"></path><path d="M1095.29 -69.02L1095.29 -69.02" stroke="#132e65" stroke-width="1.5"></path><path d="M1095.29 -69.02L1099.14 81.11" stroke="#132e65" stroke-width="1.5"></path><path d="M1095.29 -69.02L1294.51 -96.91" stroke="#132e65" stroke-width="1.5"></path><path d="M1095.29 -69.02L1263.63 106.14" stroke="#132e65" stroke-width="1.5"></path><path d="M1099.14 81.11L1099.14 81.11" stroke="#132e65" stroke-width="1.5"></path><path d="M1088.92 259.97L1088.92 259.97" stroke="#132e65" stroke-width="1.5"></path><path d="M1088.92 259.97L1116.2 364.44" stroke="#132e65" stroke-width="1.5"></path><path d="M1088.92 259.97L1248.34 243.42" stroke="#132e65" stroke-width="1.5"></path><path d="M1116.2 364.44L1116.2 364.44" stroke="#132e65" stroke-width="1.5"></path><path d="M1147.26 502.35L1147.26 502.35" stroke="#132e65" stroke-width="1.5"></path><path d="M1147.26 502.35L1277.85 527.57" stroke="#132e65" stroke-width="1.5"></path><path d="M1147.26 502.35L1116.2 364.44" stroke="#132e65" stroke-width="1.5"></path><path d="M1147.26 502.35L1241.92 389.65" stroke="#132e65" stroke-width="1.5"></path><path d="M1114.1 655.56L1114.1 655.56" stroke="#132e65" stroke-width="1.5"></path><path d="M1114.1 655.56L1248.25 688.61" stroke="#132e65" stroke-width="1.5"></path><path d="M1114.1 655.56L1147.26 502.35" stroke="#132e65" stroke-width="1.5"></path><path d="M1114.1 655.56L1277.85 527.57" stroke="#132e65" stroke-width="1.5"></path><path d="M1294.51 -96.91L1294.51 -96.91" stroke="#132e65" stroke-width="1.5"></path><path d="M1294.51 -96.91L1432.26 -67.25" stroke="#132e65" stroke-width="1.5"></path><path d="M1294.51 -96.91L1263.63 106.14" stroke="#132e65" stroke-width="1.5"></path><path d="M1294.51 -96.91L1435.43 61.44" stroke="#132e65" stroke-width="1.5"></path><path d="M1263.63 106.14L1263.63 106.14" stroke="#132e65" stroke-width="1.5"></path><path d="M1263.63 106.14L1248.34 243.42" stroke="#132e65" stroke-width="1.5"></path><path d="M1263.63 106.14L1099.14 81.11" stroke="#132e65" stroke-width="1.5"></path><path d="M1263.63 106.14L1435.43 61.44" stroke="#132e65" stroke-width="1.5"></path><path d="M1248.34 243.42L1248.34 243.42" stroke="#132e65" stroke-width="1.5"></path><path d="M1248.34 243.42L1241.92 389.65" stroke="#132e65" stroke-width="1.5"></path><path d="M1241.92 389.65L1241.92 389.65" stroke="#132e65" stroke-width="1.5"></path><path d="M1241.92 389.65L1116.2 364.44" stroke="#132e65" stroke-width="1.5"></path><path d="M1241.92 389.65L1277.85 527.57" stroke="#132e65" stroke-width="1.5"></path><path d="M1277.85 527.57L1277.85 527.57" stroke="#132e65" stroke-width="1.5"></path><path d="M1277.85 527.57L1248.25 688.61" stroke="#132e65" stroke-width="1.5"></path><path d="M1277.85 527.57L1454.31 522.15" stroke="#132e65" stroke-width="1.5"></path><path d="M1248.25 688.61L1248.25 688.61" stroke="#132e65" stroke-width="1.5"></path><path d="M1432.26 -67.25L1432.26 -67.25" stroke="#132e65" stroke-width="1.5"></path><path d="M1432.26 -67.25L1435.43 61.44" stroke="#132e65" stroke-width="1.5"></path><path d="M1432.26 -67.25L1563.98 -85.53" stroke="#132e65" stroke-width="1.5"></path><path d="M1432.26 -67.25L1591.76 58.83" stroke="#132e65" stroke-width="1.5"></path><path d="M1432.26 -67.25L1263.63 106.14" stroke="#132e65" stroke-width="1.5"></path><path d="M1435.43 61.44L1435.43 61.44" stroke="#132e65" stroke-width="1.5"></path><path d="M1435.43 61.44L1591.76 58.83" stroke="#132e65" stroke-width="1.5"></path><path d="M1435.43 61.44L1431.6 233.9" stroke="#132e65" stroke-width="1.5"></path><path d="M1431.6 233.9L1431.6 233.9" stroke="#132e65" stroke-width="1.5"></path><path d="M1431.6 233.9L1423.98 378.86" stroke="#132e65" stroke-width="1.5"></path><path d="M1431.6 233.9L1594.76 212.32" stroke="#132e65" stroke-width="1.5"></path><path d="M1431.6 233.9L1554.46 348.33" stroke="#132e65" stroke-width="1.5"></path><path d="M1431.6 233.9L1248.34 243.42" stroke="#132e65" stroke-width="1.5"></path><path d="M1431.6 233.9L1263.63 106.14" stroke="#132e65" stroke-width="1.5"></path><path d="M1423.98 378.86L1423.98 378.86" stroke="#132e65" stroke-width="1.5"></path><path d="M1423.98 378.86L1554.46 348.33" stroke="#132e65" stroke-width="1.5"></path><path d="M1423.98 378.86L1454.31 522.15" stroke="#132e65" stroke-width="1.5"></path><path d="M1423.98 378.86L1241.92 389.65" stroke="#132e65" stroke-width="1.5"></path><path d="M1423.98 378.86L1277.85 527.57" stroke="#132e65" stroke-width="1.5"></path><path d="M1454.31 522.15L1454.31 522.15" stroke="#132e65" stroke-width="1.5"></path><path d="M1454.31 522.15L1552.69 543.2" stroke="#132e65" stroke-width="1.5"></path><path d="M1417.2 712.11L1417.2 712.11" stroke="#132e65" stroke-width="1.5"></path><path d="M1417.2 712.11L1548.75 667.2" stroke="#132e65" stroke-width="1.5"></path><path d="M1417.2 712.11L1248.25 688.61" stroke="#132e65" stroke-width="1.5"></path><path d="M1417.2 712.11L1454.31 522.15" stroke="#132e65" stroke-width="1.5"></path><path d="M1417.2 712.11L1552.69 543.2" stroke="#132e65" stroke-width="1.5"></path><path d="M1563.98 -85.53L1563.98 -85.53" stroke="#132e65" stroke-width="1.5"></path><path d="M1563.98 -85.53L1591.76 58.83" stroke="#132e65" stroke-width="1.5"></path><path d="M1591.76 58.83L1591.76 58.83" stroke="#132e65" stroke-width="1.5"></path><path d="M1591.76 58.83L1594.76 212.32" stroke="#132e65" stroke-width="1.5"></path><path d="M1594.76 212.32L1594.76 212.32" stroke="#132e65" stroke-width="1.5"></path><path d="M1594.76 212.32L1554.46 348.33" stroke="#132e65" stroke-width="1.5"></path><path d="M1554.46 348.33L1554.46 348.33" stroke="#132e65" stroke-width="1.5"></path><path d="M1552.69 543.2L1552.69 543.2" stroke="#132e65" stroke-width="1.5"></path><path d="M1552.69 543.2L1548.75 667.2" stroke="#132e65" stroke-width="1.5"></path><path d="M1552.69 543.2L1554.46 348.33" stroke="#132e65" stroke-width="1.5"></path><path d="M1552.69 543.2L1423.98 378.86" stroke="#132e65" stroke-width="1.5"></path><path d="M1548.75 667.2L1548.75 667.2" stroke="#132e65" stroke-width="1.5"></path><path d="M1548.75 667.2L1454.31 522.15" stroke="#132e65" stroke-width="1.5"></path><path d="M1548.75 667.2L1248.25 688.61" stroke="#132e65" stroke-width="1.5"></path><path d="M1548.75 667.2L1277.85 527.57" stroke="#132e65" stroke-width="1.5"></path><path d="M1548.75 667.2L1423.98 378.86" stroke="#132e65" stroke-width="1.5"></path><circle r="5" cx="-49.65" cy="374.62" fill="#132e65"></circle><circle r="5" cx="-60.48" cy="518.52" fill="#132e65"></circle><circle r="5" cx="-78.75" cy="704.43" fill="#132e65"></circle><circle r="5" cx="58.33" cy="390.26" fill="#132e65"></circle><circle r="5" cx="88.18" cy="552.94" fill="#132e65"></circle><circle r="5" cx="45.9" cy="702.22" fill="#132e65"></circle><circle r="5" cx="260.36" cy="409.23" fill="#132e65"></circle><circle r="5" cx="255.14" cy="561.87" fill="#132e65"></circle><circle r="5" cx="218.15" cy="672.03" fill="#132e65"></circle><circle r="5" cx="394.32" cy="389.11" fill="#132e65"></circle><circle r="5" cx="341.82" cy="555.29" fill="#132e65"></circle><circle r="5" cx="404.65" cy="644.49" fill="#132e65"></circle><circle r="5" cx="561.51" cy="355.53" fill="#132e65"></circle><circle r="5" cx="495.72" cy="539.08" fill="#132e65"></circle><circle r="5" cx="639.65" cy="245.42" fill="#132e65"></circle><circle r="5" cx="712.11" cy="533.85" fill="#132e65"></circle><circle r="5" cx="653.44" cy="668.7" fill="#132e65"></circle><circle r="5" cx="792.11" cy="205.67" fill="#132e65"></circle><circle r="5" cx="820.24" cy="395.63" fill="#132e65"></circle><circle r="5" cx="802.12" cy="512.54" fill="#132e65"></circle><circle r="5" cx="841.74" cy="690.77" fill="#132e65"></circle><circle r="5" cx="995.42" cy="-96.33" fill="#132e65"></circle><circle r="5" cx="965.79" cy="88.55" fill="#132e65"></circle><circle r="5" cx="1009.95" cy="192.3" fill="#132e65"></circle><circle r="5" cx="977.07" cy="357.56" fill="#132e65"></circle><circle r="5" cx="975.62" cy="561.07" fill="#132e65"></circle><circle r="5" cx="1005.71" cy="679.31" fill="#132e65"></circle><circle r="5" cx="1095.29" cy="-69.02" fill="#132e65"></circle><circle r="5" cx="1099.14" cy="81.11" fill="#132e65"></circle><circle r="5" cx="1088.92" cy="259.97" fill="#132e65"></circle><circle r="5" cx="1116.2" cy="364.44" fill="#132e65"></circle><circle r="5" cx="1147.26" cy="502.35" fill="#132e65"></circle><circle r="5" cx="1114.1" cy="655.56" fill="#132e65"></circle><circle r="5" cx="1294.51" cy="-96.91" fill="#132e65"></circle><circle r="5" cx="1263.63" cy="106.14" fill="#132e65"></circle><circle r="5" cx="1248.34" cy="243.42" fill="#132e65"></circle><circle r="5" cx="1241.92" cy="389.65" fill="#132e65"></circle><circle r="5" cx="1277.85" cy="527.57" fill="#132e65"></circle><circle r="5" cx="1248.25" cy="688.61" fill="#132e65"></circle><circle r="5" cx="1432.26" cy="-67.25" fill="#132e65"></circle><circle r="5" cx="1435.43" cy="61.44" fill="#132e65"></circle><circle r="5" cx="1431.6" cy="233.9" fill="#132e65"></circle><circle r="5" cx="1423.98" cy="378.86" fill="#132e65"></circle><circle r="5" cx="1454.31" cy="522.15" fill="#132e65"></circle><circle r="5" cx="1417.2" cy="712.11" fill="#132e65"></circle><circle r="5" cx="1563.98" cy="-85.53" fill="#132e65"></circle><circle r="5" cx="1591.76" cy="58.83" fill="#132e65"></circle><circle r="5" cx="1594.76" cy="212.32" fill="#132e65"></circle><circle r="5" cx="1554.46" cy="348.33" fill="#132e65"></circle><circle r="5" cx="1552.69" cy="543.2" fill="#132e65"></circle><circle r="5" cx="1548.75" cy="667.2" fill="#132e65"></circle><path d="M196.87 519.28L196.87 519.28" stroke="hsl(228.5, 77.2%, 51.5%)" stroke-width="1.5"></path><path d="M196.87 519.28L83.3 518.57" stroke="hsl(228.5, 77.2%, 51.5%)" stroke-width="1.5"></path><path d="M196.87 519.28L364.65 495.58" stroke="hsl(228.5, 77.2%, 51.5%)" stroke-width="1.5"></path><path d="M196.87 519.28L227.27 705.11" stroke="hsl(228.5, 77.2%, 51.5%)" stroke-width="1.5"></path><path d="M196.87 519.28L351.53 708.94" stroke="hsl(228.5, 77.2%, 51.5%)" stroke-width="1.5"></path><path d="M196.87 519.28L-95.37 504.05" stroke="hsl(228.5, 77.2%, 51.5%)" stroke-width="1.5"></path><path d="M709.47 514.78L709.47 514.78" stroke="hsl(228.5, 77.2%, 51.5%)" stroke-width="1.5"></path><path d="M709.47 514.78L638.58 381.91" stroke="hsl(228.5, 77.2%, 51.5%)" stroke-width="1.5"></path><path d="M709.47 514.78L641.22 676.57" stroke="hsl(228.5, 77.2%, 51.5%)" stroke-width="1.5"></path><path d="M709.47 514.78L856.12 352.64" stroke="hsl(228.5, 77.2%, 51.5%)" stroke-width="1.5"></path><path d="M709.47 514.78L487.74 705.2" stroke="hsl(228.5, 77.2%, 51.5%)" stroke-width="1.5"></path><path d="M709.47 514.78L997.49 637.68" stroke="hsl(228.5, 77.2%, 51.5%)" stroke-width="1.5"></path><path d="M856.12 352.64L856.12 352.64" stroke="hsl(228.5, 77.2%, 51.5%)" stroke-width="1.5"></path><path d="M856.12 352.64L951.6 260.15" stroke="hsl(228.5, 77.2%, 51.5%)" stroke-width="1.5"></path><path d="M856.12 352.64L1003.2 357.85" stroke="hsl(228.5, 77.2%, 51.5%)" stroke-width="1.5"></path><path d="M1003.2 357.85L1003.2 357.85" stroke="hsl(228.5, 77.2%, 51.5%)" stroke-width="1.5"></path><path d="M1003.2 357.85L951.6 260.15" stroke="hsl(228.5, 77.2%, 51.5%)" stroke-width="1.5"></path><path d="M1003.2 357.85L1099.37 213.59" stroke="hsl(228.5, 77.2%, 51.5%)" stroke-width="1.5"></path><path d="M1003.2 357.85L1098.53 548.59" stroke="hsl(228.5, 77.2%, 51.5%)" stroke-width="1.5"></path><path d="M1003.2 357.85L1246.82 407.58" stroke="hsl(228.5, 77.2%, 51.5%)" stroke-width="1.5"></path><path d="M1302.71 -110.21L1302.71 -110.21" stroke="hsl(228.5, 77.2%, 51.5%)" stroke-width="1.5"></path><path d="M1302.71 -110.21L1460.51 -105.22" stroke="hsl(228.5, 77.2%, 51.5%)" stroke-width="1.5"></path><path d="M1302.71 -110.21L1431.41 51.25" stroke="hsl(228.5, 77.2%, 51.5%)" stroke-width="1.5"></path><path d="M1266.66 544.31L1266.66 544.31" stroke="hsl(228.5, 77.2%, 51.5%)" stroke-width="1.5"></path><path d="M1266.66 544.31L1246.82 407.58" stroke="hsl(228.5, 77.2%, 51.5%)" stroke-width="1.5"></path><path d="M1266.66 544.31L1268.82 698.62" stroke="hsl(228.5, 77.2%, 51.5%)" stroke-width="1.5"></path><path d="M1266.66 544.31L1098.53 548.59" stroke="hsl(228.5, 77.2%, 51.5%)" stroke-width="1.5"></path><path d="M1460.51 -105.22L1460.51 -105.22" stroke="hsl(228.5, 77.2%, 51.5%)" stroke-width="1.5"></path><path d="M1460.51 -105.22L1549.39 -69.52" stroke="hsl(228.5, 77.2%, 51.5%)" stroke-width="1.5"></path><path d="M1460.51 -105.22L1431.41 51.25" stroke="hsl(228.5, 77.2%, 51.5%)" stroke-width="1.5"></path><path d="M1460.51 -105.22L1544.68 67.88" stroke="hsl(228.5, 77.2%, 51.5%)" stroke-width="1.5"></path><path d="M1431.41 51.25L1431.41 51.25" stroke="hsl(228.5, 77.2%, 51.5%)" stroke-width="1.5"></path><path d="M1431.41 51.25L1544.68 67.88" stroke="hsl(228.5, 77.2%, 51.5%)" stroke-width="1.5"></path><path d="M1406.99 675.45L1406.99 675.45" stroke="hsl(228.5, 77.2%, 51.5%)" stroke-width="1.5"></path><path d="M1406.99 675.45L1449.09 546.52" stroke="hsl(228.5, 77.2%, 51.5%)" stroke-width="1.5"></path><path d="M1406.99 675.45L1268.82 698.62" stroke="hsl(228.5, 77.2%, 51.5%)" stroke-width="1.5"></path><path d="M1406.99 675.45L1266.66 544.31" stroke="hsl(228.5, 77.2%, 51.5%)" stroke-width="1.5"></path><path d="M1406.99 675.45L1599.4 703.33" stroke="hsl(228.5, 77.2%, 51.5%)" stroke-width="1.5"></path><path d="M1406.99 675.45L1246.82 407.58" stroke="hsl(228.5, 77.2%, 51.5%)" stroke-width="1.5"></path><path d="M1598.85 372.67L1598.85 372.67" stroke="hsl(228.5, 77.2%, 51.5%)" stroke-width="1.5"></path><path d="M1598.85 372.67L1568.99 206.3" stroke="hsl(228.5, 77.2%, 51.5%)" stroke-width="1.5"></path><path d="M1598.85 372.67L1458.2 219.58" stroke="hsl(228.5, 77.2%, 51.5%)" stroke-width="1.5"></path><path d="M1598.85 372.67L1449.09 546.52" stroke="hsl(228.5, 77.2%, 51.5%)" stroke-width="1.5"></path><path d="M1598.85 372.67L1544.68 67.88" stroke="hsl(228.5, 77.2%, 51.5%)" stroke-width="1.5"></path><path d="M1598.85 372.67L1599.4 703.33" stroke="hsl(228.5, 77.2%, 51.5%)" stroke-width="1.5"></path><path d="M-95.37 504.05L-95.37 504.05" stroke="hsl(228.5, 77.2%, 51.5%)" stroke-width="1.5"></path><path d="M-95.37 504.05L83.3 518.57" stroke="hsl(228.5, 77.2%, 51.5%)" stroke-width="1.5"></path><path d="M83.3 518.57L83.3 518.57" stroke="hsl(228.5, 77.2%, 51.5%)" stroke-width="1.5"></path><path d="M83.3 518.57L227.27 705.11" stroke="hsl(228.5, 77.2%, 51.5%)" stroke-width="1.5"></path><path d="M83.3 518.57L364.65 495.58" stroke="hsl(228.5, 77.2%, 51.5%)" stroke-width="1.5"></path><path d="M227.27 705.11L227.27 705.11" stroke="hsl(228.5, 77.2%, 51.5%)" stroke-width="1.5"></path><path d="M227.27 705.11L351.53 708.94" stroke="hsl(228.5, 77.2%, 51.5%)" stroke-width="1.5"></path><path d="M364.65 495.58L364.65 495.58" stroke="hsl(228.5, 77.2%, 51.5%)" stroke-width="1.5"></path><path d="M364.65 495.58L351.53 708.94" stroke="hsl(228.5, 77.2%, 51.5%)" stroke-width="1.5"></path><path d="M364.65 495.58L487.74 705.2" stroke="hsl(228.5, 77.2%, 51.5%)" stroke-width="1.5"></path><path d="M364.65 495.58L227.27 705.11" stroke="hsl(228.5, 77.2%, 51.5%)" stroke-width="1.5"></path><path d="M364.65 495.58L638.58 381.91" stroke="hsl(228.5, 77.2%, 51.5%)" stroke-width="1.5"></path><path d="M351.53 708.94L351.53 708.94" stroke="hsl(228.5, 77.2%, 51.5%)" stroke-width="1.5"></path><path d="M351.53 708.94L487.74 705.2" stroke="hsl(228.5, 77.2%, 51.5%)" stroke-width="1.5"></path><path d="M351.53 708.94L641.22 676.57" stroke="hsl(228.5, 77.2%, 51.5%)" stroke-width="1.5"></path><path d="M487.74 705.2L487.74 705.2" stroke="hsl(228.5, 77.2%, 51.5%)" stroke-width="1.5"></path><path d="M487.74 705.2L641.22 676.57" stroke="hsl(228.5, 77.2%, 51.5%)" stroke-width="1.5"></path><path d="M487.74 705.2L227.27 705.11" stroke="hsl(228.5, 77.2%, 51.5%)" stroke-width="1.5"></path><path d="M638.58 381.91L638.58 381.91" stroke="hsl(228.5, 77.2%, 51.5%)" stroke-width="1.5"></path><path d="M638.58 381.91L856.12 352.64" stroke="hsl(228.5, 77.2%, 51.5%)" stroke-width="1.5"></path><path d="M638.58 381.91L641.22 676.57" stroke="hsl(228.5, 77.2%, 51.5%)" stroke-width="1.5"></path><path d="M638.58 381.91L951.6 260.15" stroke="hsl(228.5, 77.2%, 51.5%)" stroke-width="1.5"></path><path d="M641.22 676.57L641.22 676.57" stroke="hsl(228.5, 77.2%, 51.5%)" stroke-width="1.5"></path><path d="M641.22 676.57L364.65 495.58" stroke="hsl(228.5, 77.2%, 51.5%)" stroke-width="1.5"></path><path d="M951.6 260.15L951.6 260.15" stroke="hsl(228.5, 77.2%, 51.5%)" stroke-width="1.5"></path><path d="M951.6 260.15L1099.37 213.59" stroke="hsl(228.5, 77.2%, 51.5%)" stroke-width="1.5"></path><path d="M951.6 260.15L1098.53 548.59" stroke="hsl(228.5, 77.2%, 51.5%)" stroke-width="1.5"></path><path d="M951.6 260.15L1272.06 198.2" stroke="hsl(228.5, 77.2%, 51.5%)" stroke-width="1.5"></path><path d="M951.6 260.15L1246.82 407.58" stroke="hsl(228.5, 77.2%, 51.5%)" stroke-width="1.5"></path><path d="M997.49 637.68L997.49 637.68" stroke="hsl(228.5, 77.2%, 51.5%)" stroke-width="1.5"></path><path d="M997.49 637.68L1095.01 698.13" stroke="hsl(228.5, 77.2%, 51.5%)" stroke-width="1.5"></path><path d="M997.49 637.68L1098.53 548.59" stroke="hsl(228.5, 77.2%, 51.5%)" stroke-width="1.5"></path><path d="M997.49 637.68L1268.82 698.62" stroke="hsl(228.5, 77.2%, 51.5%)" stroke-width="1.5"></path><path d="M997.49 637.68L1003.2 357.85" stroke="hsl(228.5, 77.2%, 51.5%)" stroke-width="1.5"></path><path d="M997.49 637.68L1266.66 544.31" stroke="hsl(228.5, 77.2%, 51.5%)" stroke-width="1.5"></path><path d="M1099.37 213.59L1099.37 213.59" stroke="hsl(228.5, 77.2%, 51.5%)" stroke-width="1.5"></path><path d="M1099.37 213.59L1272.06 198.2" stroke="hsl(228.5, 77.2%, 51.5%)" stroke-width="1.5"></path><path d="M1098.53 548.59L1098.53 548.59" stroke="hsl(228.5, 77.2%, 51.5%)" stroke-width="1.5"></path><path d="M1098.53 548.59L1095.01 698.13" stroke="hsl(228.5, 77.2%, 51.5%)" stroke-width="1.5"></path><path d="M1095.01 698.13L1095.01 698.13" stroke="hsl(228.5, 77.2%, 51.5%)" stroke-width="1.5"></path><path d="M1271.08 110.68L1271.08 110.68" stroke="hsl(228.5, 77.2%, 51.5%)" stroke-width="1.5"></path><path d="M1271.08 110.68L1272.06 198.2" stroke="hsl(228.5, 77.2%, 51.5%)" stroke-width="1.5"></path><path d="M1271.08 110.68L1431.41 51.25" stroke="hsl(228.5, 77.2%, 51.5%)" stroke-width="1.5"></path><path d="M1271.08 110.68L1099.37 213.59" stroke="hsl(228.5, 77.2%, 51.5%)" stroke-width="1.5"></path><path d="M1272.06 198.2L1272.06 198.2" stroke="hsl(228.5, 77.2%, 51.5%)" stroke-width="1.5"></path><path d="M1272.06 198.2L1458.2 219.58" stroke="hsl(228.5, 77.2%, 51.5%)" stroke-width="1.5"></path><path d="M1272.06 198.2L1246.82 407.58" stroke="hsl(228.5, 77.2%, 51.5%)" stroke-width="1.5"></path><path d="M1272.06 198.2L1431.41 51.25" stroke="hsl(228.5, 77.2%, 51.5%)" stroke-width="1.5"></path><path d="M1272.06 198.2L1568.99 206.3" stroke="hsl(228.5, 77.2%, 51.5%)" stroke-width="1.5"></path><path d="M1246.82 407.58L1246.82 407.58" stroke="hsl(228.5, 77.2%, 51.5%)" stroke-width="1.5"></path><path d="M1246.82 407.58L1098.53 548.59" stroke="hsl(228.5, 77.2%, 51.5%)" stroke-width="1.5"></path><path d="M1268.82 698.62L1268.82 698.62" stroke="hsl(228.5, 77.2%, 51.5%)" stroke-width="1.5"></path><path d="M1268.82 698.62L1095.01 698.13" stroke="hsl(228.5, 77.2%, 51.5%)" stroke-width="1.5"></path><path d="M1458.2 219.58L1458.2 219.58" stroke="hsl(228.5, 77.2%, 51.5%)" stroke-width="1.5"></path><path d="M1458.2 219.58L1568.99 206.3" stroke="hsl(228.5, 77.2%, 51.5%)" stroke-width="1.5"></path><path d="M1458.2 219.58L1431.41 51.25" stroke="hsl(228.5, 77.2%, 51.5%)" stroke-width="1.5"></path><path d="M1458.2 219.58L1544.68 67.88" stroke="hsl(228.5, 77.2%, 51.5%)" stroke-width="1.5"></path><path d="M1458.2 219.58L1271.08 110.68" stroke="hsl(228.5, 77.2%, 51.5%)" stroke-width="1.5"></path><path d="M1449.09 546.52L1449.09 546.52" stroke="hsl(228.5, 77.2%, 51.5%)" stroke-width="1.5"></path><path d="M1449.09 546.52L1266.66 544.31" stroke="hsl(228.5, 77.2%, 51.5%)" stroke-width="1.5"></path><path d="M1449.09 546.52L1599.4 703.33" stroke="hsl(228.5, 77.2%, 51.5%)" stroke-width="1.5"></path><path d="M1549.39 -69.52L1549.39 -69.52" stroke="hsl(228.5, 77.2%, 51.5%)" stroke-width="1.5"></path><path d="M1549.39 -69.52L1544.68 67.88" stroke="hsl(228.5, 77.2%, 51.5%)" stroke-width="1.5"></path><path d="M1549.39 -69.52L1431.41 51.25" stroke="hsl(228.5, 77.2%, 51.5%)" stroke-width="1.5"></path><path d="M1544.68 67.88L1544.68 67.88" stroke="hsl(228.5, 77.2%, 51.5%)" stroke-width="1.5"></path><path d="M1544.68 67.88L1568.99 206.3" stroke="hsl(228.5, 77.2%, 51.5%)" stroke-width="1.5"></path><path d="M1568.99 206.3L1568.99 206.3" stroke="hsl(228.5, 77.2%, 51.5%)" stroke-width="1.5"></path><path d="M1599.4 703.33L1599.4 703.33" stroke="hsl(228.5, 77.2%, 51.5%)" stroke-width="1.5"></path><path d="M1599.4 703.33L1268.82 698.62" stroke="hsl(228.5, 77.2%, 51.5%)" stroke-width="1.5"></path><circle r="25" cx="196.87" cy="519.28" fill="url(#SvgjsRadialGradient1003)"></circle><circle r="25" cx="709.47" cy="514.78" fill="url(#SvgjsRadialGradient1003)"></circle><circle r="25" cx="856.12" cy="352.64" fill="url(#SvgjsRadialGradient1003)"></circle><circle r="25" cx="1003.2" cy="357.85" fill="url(#SvgjsRadialGradient1003)"></circle><circle r="25" cx="1302.71" cy="-110.21" fill="url(#SvgjsRadialGradient1003)"></circle><circle r="25" cx="1266.66" cy="544.31" fill="url(#SvgjsRadialGradient1003)"></circle><circle r="25" cx="1460.51" cy="-105.22" fill="url(#SvgjsRadialGradient1003)"></circle><circle r="25" cx="1431.41" cy="51.25" fill="url(#SvgjsRadialGradient1003)"></circle><circle r="25" cx="1406.99" cy="675.45" fill="url(#SvgjsRadialGradient1003)"></circle><circle r="25" cx="1598.85" cy="372.67" fill="url(#SvgjsRadialGradient1003)"></circle><circle r="5" cx="-95.37" cy="504.05" fill="#8b9ad9"></circle><circle r="5" cx="83.3" cy="518.57" fill="#8b9ad9"></circle><circle r="5" cx="227.27" cy="705.11" fill="#8b9ad9"></circle><circle r="5" cx="364.65" cy="495.58" fill="#8b9ad9"></circle><circle r="5" cx="351.53" cy="708.94" fill="#8b9ad9"></circle><circle r="5" cx="487.74" cy="705.2" fill="#8b9ad9"></circle><circle r="5" cx="638.58" cy="381.91" fill="#8b9ad9"></circle><circle r="5" cx="641.22" cy="676.57" fill="#8b9ad9"></circle><circle r="5" cx="951.6" cy="260.15" fill="#8b9ad9"></circle><circle r="5" cx="997.49" cy="637.68" fill="#8b9ad9"></circle><circle r="5" cx="1099.37" cy="213.59" fill="#8b9ad9"></circle><circle r="5" cx="1098.53" cy="548.59" fill="#8b9ad9"></circle><circle r="5" cx="1095.01" cy="698.13" fill="#8b9ad9"></circle><circle r="5" cx="1271.08" cy="110.68" fill="#8b9ad9"></circle><circle r="5" cx="1272.06" cy="198.2" fill="#8b9ad9"></circle><circle r="5" cx="1246.82" cy="407.58" fill="#8b9ad9"></circle><circle r="5" cx="1268.82" cy="698.62" fill="#8b9ad9"></circle><circle r="5" cx="1458.2" cy="219.58" fill="#8b9ad9"></circle><circle r="5" cx="1449.09" cy="546.52" fill="#8b9ad9"></circle><circle r="5" cx="1549.39" cy="-69.52" fill="#8b9ad9"></circle><circle r="5" cx="1544.68" cy="67.88" fill="#8b9ad9"></circle><circle r="5" cx="1568.99" cy="206.3" fill="#8b9ad9"></circle><circle r="5" cx="1599.4" cy="703.33" fill="#8b9ad9"></circle></g><defs><mask id="SvgjsMask1002"><rect width="1440" height="560" fill="#ffffff"></rect></mask><radialGradient id="SvgjsRadialGradient1003"><stop stop-color="#ffffff" offset="0.1"></stop><stop stop-color="#1735b3" offset="0.2"></stop><stop stop-color="rgba(23, 53, 179, 0)" offset="1"></stop></radialGradient></defs></svg>