<svg
  xmlns:xlink="http://www.w3.org/1999/xlink"
  x="0px"
  y="0px"
  viewBox="0 0 512 512"
  style="enableBackground:new 0 0 512 512"
  xml:space="preserve"
>
  <path
    d="m236.1875 490.3125-90.25-90.238281c-5.300781-5.300781-5.300781-13.890625 0-19.191407l18.230469-18.234374c5.300781-5.296876 13.890625-5.296876 19.191406 0l62.421875 62.410156 38.183594-38.179688 24.226562-24.230468c5.300782-5.296876 13.890625-5.296876 19.191406 0l18.234376 18.234374c5.296874 5.296876 5.296874 13.890626 0 19.191407l-90.238282 90.238281c-5.300781 5.296875-13.890625 5.296875-19.191406 0zm0 0"
    fill="#e1eaf8"
  />
  <path
    d="m283.191406 462.46875-37.421875-37.425781 14.300781-14.304688 23.894532-23.859375 24.226562-24.230468c5.300782-5.296876 13.890625-5.296876 19.191406 0l18.230469 18.230468c5.300781 5.300782 5.296875 13.894532-.003906 19.195313l-48.113281 48.089843zm0 0"
    fill="#c1c8d2"
  />
  <path
    d="m283.191406 462.46875-37.421875-37.425781 9.089844-9.074219 37.421875 37.425781zm0 0"
    fill="#d8e0ea"
  />
  <path
    d="m236.1875 21.6875-90.25 90.238281c-5.300781 5.300781-5.300781 13.890625 0 19.191407l18.230469 18.234374c5.300781 5.296876 13.890625 5.296876 19.191406 0l62.421875-62.410156 38.183594 38.179688 24.226562 24.230468c5.300782 5.296876 13.890625 5.296876 19.191406 0l18.234376-18.234374c5.296874-5.296876 5.296874-13.890626 0-19.191407l-90.238282-90.238281c-5.300781-5.296875-13.890625-5.296875-19.191406 0zm0 0"
    fill="#e1eaf8"
  />
  <path
    d="m283.191406 49.53125-37.421875 37.425781 14.300781 14.304688 23.894532 23.859375 24.226562 24.230468c5.300782 5.296876 13.890625 5.296876 19.191406 0l18.230469-18.230468c5.300781-5.300782 5.296875-13.894532-.003906-19.195313l-48.113281-48.089843zm0 0"
    fill="#c1c8d2"
  />
  <path
    d="m283.191406 49.53125-37.421875 37.425781 9.089844 9.074219 37.421875-37.425781zm0 0"
    fill="#d8e0ea"
  />
  <path
    d="m11.464844 246.410156 90.238281-90.25c5.296875-5.300781 13.890625-5.300781 19.191406 0l18.234375 18.234375c5.296875 5.296875 5.296875 13.886719 0 19.1875l-62.410156 62.425781 38.179688 38.179688 24.230468 24.226562c5.296875 5.300782 5.296875 13.894532 0 19.191407l-18.234375 18.234375c-5.300781 5.300781-13.890625 5.300781-19.191406 0l-90.238281-90.238282c-5.300782-5.296874-5.300782-13.890624 0-19.191406zm0 0"
    fill="#e1eaf8"
  />
  <path
    d="m39.308594 293.414062 37.421875-37.421874 14.304687 14.304687 23.859375 23.890625 24.230469 24.226562c5.300781 5.300782 5.300781 13.894532 0 19.191407l-18.230469 18.230469c-5.296875 5.300781-13.890625 5.300781-19.191406 0l-48.089844-48.117188zm0 0"
    fill="#c1c8d2"
  />
  <path
    d="m39.308594 293.414062 37.421875-37.421874 9.078125 9.089843-37.425782 37.425781zm0 0"
    fill="#d8e0ea"
  />
  <path
    d="m480.089844 246.410156-90.242188-90.25c-5.296875-5.300781-13.890625-5.300781-19.191406 0l-18.230469 18.234375c-5.300781 5.296875-5.300781 13.886719-.003906 19.1875l62.414063 62.425781-38.183594 38.179688-24.226563 24.226562c-5.300781 5.300782-5.300781 13.894532 0 19.191407l18.230469 18.234375c5.300781 5.300781 13.890625 5.300781 19.191406 0l90.238282-90.238282c5.300781-5.296874 5.300781-13.890624.003906-19.191406zm0 0"
    fill="#e1eaf8"
  />
  <path
    d="m452.242188 293.414062-37.421876-37.421874-14.304687 14.304687-23.859375 23.890625-24.230469 24.226562c-5.296875 5.300782-5.296875 13.894532 0 19.191407l18.230469 18.230469c5.300781 5.300781 13.894531 5.300781 19.191406 0l48.089844-48.117188zm0 0"
    fill="#c1c8d2"
  />
  <path
    d="m452.242188 293.414062-37.421876-37.421874-9.074218 9.089843 37.421875 37.425781zm0 0"
    fill="#d8e0ea"
  />
  <g fill="#434c54">
    <path d="m483.785156 488.582031c-4.140625 0-7.5 3.359375-7.5 7.5v8.417969c0 4.140625 3.359375 7.5 7.5 7.5 4.144532 0 7.5-3.359375 7.5-7.5v-8.417969c0-4.140625-3.355468-7.5-7.5-7.5zm0 0" />
    <path d="m439.515625 488.582031c-4.144531 0-7.5 3.359375-7.5 7.5v8.417969c0 4.140625 3.355469 7.5 7.5 7.5 4.140625 0 7.5-3.359375 7.5-7.5v-8.417969c0-4.140625-3.359375-7.5-7.5-7.5zm0 0" />
    <path d="m395.242188 488.582031c-4.144532 0-7.5 3.359375-7.5 7.5v8.417969c0 4.140625 3.355468 7.5 7.5 7.5 4.140624 0 7.5-3.359375 7.5-7.5v-8.417969c0-4.140625-3.359376-7.5-7.5-7.5zm0 0" />
    <path d="m96.308594 23.417969c4.144531 0 7.5-3.359375 7.5-7.5v-8.417969c0-4.140625-3.355469-7.5-7.5-7.5-4.140625 0-7.5 3.359375-7.5 7.5v8.417969c0 4.140625 3.359375 7.5 7.5 7.5zm0 0" />
    <path d="m52.039062 23.417969c4.140626 0 7.5-3.359375 7.5-7.5v-8.417969c0-4.140625-3.359374-7.5-7.5-7.5-4.144531 0-7.5 3.359375-7.5 7.5v8.417969c0 4.140625 3.355469 7.5 7.5 7.5zm0 0" />
    <path d="m7.765625 23.417969c4.140625 0 7.5-3.359375 7.5-7.5v-8.417969c0-4.140625-3.359375-7.5-7.5-7.5s-7.5 3.359375-7.5 7.5v8.417969c0 4.140625 3.355469 7.5 7.5 7.5zm0 0" />
    <path d="m158.867188 154.652344c8.210937 8.214844 21.578124 8.214844 29.792968.003906l57.121094-57.109375 57.109375 57.105469c3.976563 3.980468 9.269531 6.171875 14.898437 6.171875 5.625 0 10.917969-2.191407 14.898438-6.171875l18.230469-18.230469c8.214843-8.21875 8.214843-21.582031 0-29.800781l-90.238281-90.234375c-8.210938-8.214844-21.578126-8.214844-29.796876-.003907l-90.25 90.238282c-3.980468 3.980468-6.171874 9.273437-6.171874 14.902344 0 5.625 2.191406 10.917968 6.171874 14.898437zm-7.628907-37.421875 90.253907-90.238281c2.367187-2.367188 6.21875-2.367188 8.582031 0l90.238281 90.238281c2.371094 2.371093 2.371094 6.210937 0 8.582031l-18.234375 18.234375c-1.273437 1.277344-3.023437 1.914063-4.851563 1.753906-1.480468-.132812-2.84375-.867187-3.894531-1.917969l-56.941406-56.941406s0-.003906-.003906-.003906c-5.871094-5.84375-15.371094-5.835938-21.230469.019531l-57.097656 57.089844c-2.367188 2.367187-6.21875 2.367187-8.585938 0l-18.074218-18.074219c-1.050782-1.050781-1.78125-2.414062-1.910157-3.894531-.164062-1.824219.476563-3.570313 1.75-4.847656zm0 0" />
    <path d="m332.675781 357.347656c-8.210937-8.214844-21.578125-8.214844-29.796875-.003906l-57.121094 57.109375-57.105468-57.105469c-3.976563-3.980468-9.269532-6.171875-14.898438-6.171875s-10.917968 2.191407-14.898437 6.171875l-18.234375 18.230469c-8.214844 8.21875-8.214844 21.582031 0 29.800781l90.238281 90.234375c8.214844 8.214844 21.582031 8.214844 29.796875.003907l90.253906-90.238282c3.980469-3.980468 6.171875-9.273437 6.171875-14.902344 0-5.625-2.191406-10.917968-6.171875-14.898437zm7.628907 37.421875-90.253907 90.238281c-2.367187 2.367188-6.214843 2.367188-8.582031 0l-90.238281-90.238281c-2.371094-2.371093-2.371094-6.210937 0-8.582031l18.234375-18.234375c1.273437-1.277344 3.023437-1.914063 4.851562-1.753906 1.480469.132812 2.84375.867187 3.894532 1.917969l56.941406 56.941406s0 .003906.003906.003906c5.871094 5.84375 15.371094 5.835938 21.230469-.019531l57.097656-57.089844c2.367187-2.367187 6.21875-2.367187 8.585937 0l18.074219 18.074219c1.050781 1.050781 1.78125 2.414062 1.910157 3.894531.164062 1.824219-.476563 3.570313-1.75 4.847656zm0 0" />
    <path d="m347.125 169.085938c-8.210938 8.214843-8.214844 21.582031 0 29.796874l57.109375 57.121094-57.105469 57.105469c-3.980468 3.980469-6.171875 9.273437-6.171875 14.898437 0 5.628907 2.191407 10.921876 6.171875 14.898438l18.230469 18.234375c8.214844 8.214844 21.582031 8.214844 29.796875 0l90.238281-90.238281c8.214844-8.214844 8.214844-21.582032 0-29.796875l-90.238281-90.25c-3.976562-3.980469-9.269531-6.171875-14.898438-6.175781-5.628906 0-10.917968 2.191406-14.898437 6.171874zm37.425781-7.625 90.238281 90.25c2.367188 2.367187 2.367188 6.21875 0 8.585937l-90.238281 90.238281c-2.371093 2.371094-6.214843 2.371094-8.585937 0l-18.230469-18.234375c-1.277344-1.277343-1.917969-3.023437-1.753906-4.851562.132812-1.480469.867187-2.84375 1.917969-3.894531l56.941406-56.945313h.003906c5.84375-5.875 5.835938-15.371094-.019531-21.230469l-57.09375-57.101562c-2.363281-2.363282-2.367188-6.214844 0-8.582032l18.078125-18.074218c1.046875-1.050782 2.414062-1.78125 3.890625-1.914063 1.828125-.160156 3.574219.476563 4.851562 1.753907zm0 0" />
    <path d="m144.429688 342.898438c8.214843-8.214844 8.214843-21.582032 0-29.796876l-57.109376-57.121093 57.109376-57.105469c3.976562-3.980469 6.167968-9.273438 6.167968-14.898438 0-5.628906-2.191406-10.921874-6.167968-14.898437l-18.234376-18.234375c-8.214843-8.214844-21.582031-8.214844-29.796874 0l-90.238282 90.238281c-8.214844 8.214844-8.214844 21.582031 0 29.796875l90.238282 90.25c3.980468 3.980469 9.273437 6.171875 14.898437 6.175782 5.628906 0 10.921875-2.191407 14.898437-6.171876zm-37.421876 7.625-90.242187-90.25c-2.367187-2.367188-2.363281-6.21875 0-8.585938l90.238281-90.238281c2.371094-2.371094 6.214844-2.371094 8.585938 0l18.230468 18.234375c1.28125 1.277344 1.917969 3.027344 1.753907 4.851562-.132813 1.480469-.863281 2.84375-1.914063 3.894532l-56.945312 56.945312v.003906c-5.84375 5.871094-5.839844 15.367188.019531 21.226563l57.089844 57.101562c2.367187 2.363281 2.367187 6.21875 0 8.582031l-18.074219 18.074219c-1.050781 1.050781-2.414062 1.785157-3.894531 1.914063-1.828125.160156-3.574219-.476563-4.847657-1.753906zm0 0" />
    <path d="m381.527344 256c0-4.140625-3.355469-7.5-7.5-7.5h-80.847656c-3.226563-20.46875-19.433594-36.679688-39.902344-39.902344v-80.851562c0-4.140625-3.359375-7.5-7.5-7.5-4.144532 0-7.5 3.359375-7.5 7.5v80.851562c-20.46875 3.222656-36.679688 19.433594-39.90625 39.902344h-80.847656c-4.140626 0-7.5 3.359375-7.5 7.5s3.359374 7.5 7.5 7.5h80.847656c3.226562 20.46875 19.4375 36.679688 39.90625 39.902344v80.851562c0 4.140625 3.355468 7.5 7.5 7.5 4.140625 0 7.5-3.359375 7.5-7.5v-80.851562c20.46875-3.222656 36.675781-19.433594 39.902344-39.902344h80.847656c4.144531 0 7.5-3.359375 7.5-7.5zm-135.75 32.992188c-18.195313 0-32.996094-14.800782-32.996094-32.992188s14.800781-32.992188 32.996094-32.992188c18.191406 0 32.992187 14.800782 32.992187 32.992188s-14.800781 32.992188-32.992187 32.992188zm0 0" />
    <path d="m181.777344 238.707031c4.140625 0 7.5-3.355469 7.5-7.5 0-4.140625-3.359375-7.5-7.5-7.5h-17.335938c-4.140625 0-7.5 3.359375-7.5 7.5 0 4.144531 3.359375 7.5 7.5 7.5zm0 0" />
    <path d="m164.441406 273.292969c-4.140625 0-7.5 3.355469-7.5 7.5 0 4.140625 3.359375 7.5 7.5 7.5h17.332032c4.144531 0 7.5-3.359375 7.5-7.5 0-4.144531-3.355469-7.5-7.5-7.5zm0 0" />
    <path d="m327.109375 223.707031h-17.332031c-4.144532 0-7.5 3.359375-7.5 7.5 0 4.144531 3.355468 7.5 7.5 7.5h17.332031c4.140625 0 7.5-3.355469 7.5-7.5 0-4.140625-3.359375-7.5-7.5-7.5zm0 0" />
    <path d="m309.777344 273.292969c-4.144532 0-7.5 3.355469-7.5 7.5 0 4.140625 3.355468 7.5 7.5 7.5h17.332031c4.140625 0 7.5-3.359375 7.5-7.5 0-4.144531-3.359375-7.5-7.5-7.5zm0 0" />
    <path d="m278.066406 192v-17.332031c0-4.144531-3.355468-7.5-7.5-7.5-4.140625 0-7.5 3.355469-7.5 7.5v17.332031c0 4.140625 3.359375 7.5 7.5 7.5 4.144532 0 7.5-3.359375 7.5-7.5zm0 0" />
    <path d="m228.484375 192v-17.332031c0-4.144531-3.359375-7.5-7.5-7.5s-7.5 3.355469-7.5 7.5v17.332031c0 4.140625 3.359375 7.5 7.5 7.5s7.5-3.359375 7.5-7.5zm0 0" />
    <path d="m263.066406 320v17.332031c0 4.144531 3.359375 7.5 7.5 7.5 4.144532 0 7.5-3.355469 7.5-7.5v-17.332031c0-4.140625-3.355468-7.5-7.5-7.5-4.140625 0-7.5 3.359375-7.5 7.5zm0 0" />
    <path d="m213.484375 320v17.332031c0 4.144531 3.359375 7.5 7.5 7.5s7.5-3.355469 7.5-7.5v-17.332031c0-4.140625-3.359375-7.5-7.5-7.5s-7.5 3.359375-7.5 7.5zm0 0" />
  </g>
</svg>
