<svg
  version="1.1"
  xmlns="http://www.w3.org/2000/svg"
  xmlns:xlink="http://www.w3.org/1999/xlink"
  x="0px"
  y="0px"
  viewBox="0 0 512 512"
  style="enableBackground:new 0 0 512 512;"
  xml:space="preserve"
>
  <path
    style="fill: #00D8DE"
    d="M406.035,269.477L218.29,457.247c-7.451,7.452-19.533,7.453-26.984,0.001l-46.452-46.452
  c-7.451-7.451-7.451-19.531-0.001-26.982l127.802-127.829l-74.918-74.918l-52.881-52.881c-7.451-7.451-7.451-19.532,0-26.984
  l46.451-46.451c7.451-7.451,19.532-7.451,26.983,0l126.316,126.316l61.427,61.427C413.485,249.946,413.485,262.026,406.035,269.477z
  "
  />
  <path
    style="fill: #00A5FF"
    d="M346.06,182.581l-73.435,73.435l-28.069-28.068l-46.82-46.879l-52.881-52.881
  c-7.451-7.451-7.451-19.532,0-26.984l46.447-46.447c7.453-7.453,19.536-7.451,26.987,0.004l99.701,99.754L346.06,182.581z"
  />
  <polygon
    style="fill: #0087FF"
    points="346.06,182.581 272.626,256.015 254.818,238.178 328.252,164.743 "
  />
  <g>
    <path
      style="fill: #05C1C1"
      d="M494.01,488.583c-4.142,0-7.5,3.358-7.5,7.5v8.417c0,4.142,3.358,7.5,7.5,7.5s7.5-3.358,7.5-7.5
    v-8.417C501.51,491.941,498.152,488.583,494.01,488.583z"
    />
    <path
      style="fill: #05C1C1"
      d="M449.738,488.583c-4.142,0-7.5,3.358-7.5,7.5v8.417c0,4.142,3.358,7.5,7.5,7.5s7.5-3.358,7.5-7.5
    v-8.417C457.238,491.941,453.88,488.583,449.738,488.583z"
    />
    <path
      style="fill: #05C1C1"
      d="M405.465,488.583c-4.142,0-7.5,3.358-7.5,7.5v8.417c0,4.142,3.358,7.5,7.5,7.5s7.5-3.358,7.5-7.5
    v-8.417C412.965,491.941,409.607,488.583,405.465,488.583z"
    />
  </g>
  <g>
    <path
      style="fill: #0087FF"
      d="M106.535,23.417c4.142,0,7.5-3.358,7.5-7.5V7.5c0-4.142-3.358-7.5-7.5-7.5s-7.5,3.358-7.5,7.5v8.417
    C99.035,20.059,102.393,23.417,106.535,23.417z"
    />
    <path
      style="fill: #0087FF"
      d="M62.262,23.417c4.142,0,7.5-3.358,7.5-7.5V7.5c0-4.142-3.358-7.5-7.5-7.5s-7.5,3.358-7.5,7.5v8.417
    C54.762,20.059,58.12,23.417,62.262,23.417z"
    />
    <path
      style="fill: #0087FF"
      d="M17.99,0c-4.142,0-7.5,3.358-7.5,7.5v8.417c0,4.142,3.358,7.5,7.5,7.5s7.5-3.358,7.5-7.5V7.5
    C25.49,3.358,22.132,0,17.99,0z"
    />
  </g>
  <g>
    <path
      style="fill: #05C1C1"
      d="M284.441,49.449c-2.929-2.929-7.678-2.929-10.606,0c-2.929,2.929-2.929,7.678,0,10.606
    l187.743,187.743c4.515,4.515,4.515,11.861,0,16.377l-187.744,187.77c-2.929,2.929-2.928,7.678,0.001,10.606
    c1.464,1.464,3.383,2.196,5.303,2.196s3.839-0.732,5.304-2.197l187.744-187.77c10.362-10.364,10.361-27.226-0.001-37.589
    L284.441,49.449z"
    />
    <path
      style="fill: #05C1C1"
      d="M39.531,215.535h136.493c4.142,0,7.5-3.358,7.5-7.5s-3.358-7.5-7.5-7.5H39.531
    c-4.142,0-7.5,3.358-7.5,7.5S35.389,215.535,39.531,215.535z"
    />
    <path
      style="fill: #05C1C1"
      d="M39.531,315.956h136.493c4.142,0,7.5-3.358,7.5-7.5s-3.358-7.5-7.5-7.5H39.531
    c-4.142,0-7.5,3.358-7.5,7.5S35.389,315.956,39.531,315.956z"
    />
    <path
      style="fill: #05C1C1"
      d="M65.029,330.451H39.531c-4.142,0-7.5,3.358-7.5,7.5s3.358,7.5,7.5,7.5H65.03
    c4.142,0,7.5-3.358,7.5-7.5S69.171,330.451,65.029,330.451z"
    />
    <path
      style="fill: #05C1C1"
      d="M39.531,181.549H65.03c4.142,0,7.5-3.358,7.5-7.5s-3.358-7.5-7.5-7.5H39.531
    c-4.142,0-7.5,3.358-7.5,7.5S35.389,181.549,39.531,181.549z"
    />
  </g>
  <g></g>
  <g></g>
  <g></g>
  <g></g>
  <g></g>
  <g></g>
  <g></g>
  <g></g>
  <g></g>
  <g></g>
  <g></g>
  <g></g>
  <g></g>
  <g></g>
  <g></g>
</svg>
